<svg xmlns="http://www.w3.org/2000/svg" width="96" height="96" fill="none" viewBox="0 0 96 96" id="git-pull-request">
  <path fill="url(#paint0_linear_1208_8499)" fill-rule="evenodd" d="M22.8182 12.4997C18.7991 12.4997 15.5 15.796 15.5 19.9128C15.5 24.0296 18.7991 27.3258 22.8182 27.3258C22.8541 27.3258 22.8899 27.3255 22.9257 27.325C22.9439 27.3245 22.9622 27.3241 22.9806 27.324C26.9258 27.2367 30.1364 23.974 30.1364 19.9127C30.1364 15.7959 26.8374 12.4997 22.8182 12.4997ZM10.5 19.9128C10.5 25.9519 14.7906 31.0124 20.5 32.1067L20.5 86.1875C20.5 87.5682 21.6193 88.6875 23 88.6875C24.3807 88.6875 25.5 87.5682 25.5 86.1875L25.5 32.0312C31.0271 30.796 35.1364 25.823 35.1364 19.9128C35.1364 13.0799 29.644 7.49971 22.8182 7.49971C15.9925 7.49971 10.5 13.0799 10.5 19.9128ZM64.8635 75.9128C64.8635 71.7959 68.1626 68.4997 72.1818 68.4997C76.2009 68.4997 79.4999 71.7959 79.4999 75.9128C79.4999 80.0296 76.2009 83.3258 72.1818 83.3258C68.1626 83.3258 64.8635 80.0296 64.8635 75.9128ZM69.5 63.7943C63.9729 65.0295 59.8635 70.0025 59.8635 75.9128C59.8635 82.7456 65.356 88.3258 72.1818 88.3258C79.0075 88.3258 84.4999 82.7456 84.4999 75.9128C84.4999 69.8737 80.2094 64.8131 74.5 63.7188L74.5 36.8239C74.5 26.0544 65.7695 17.3239 55 17.3239L46 17.3239C44.6193 17.3239 43.5 18.4432 43.5 19.8239C43.5 21.2046 44.6193 22.3239 46 22.3239L55 22.3239C63.0081 22.3239 69.5 28.8158 69.5 36.8239L69.5 63.7943Z" clip-rule="evenodd"></path>
  <defs>
    <linearGradient id="paint0_linear_1208_8499" x1="10.5" x2="84.5" y1="48.094" y2="48.094" gradientUnits="userSpaceOnUse">
      <stop stop-color="#FF1F00"></stop>
      <stop offset="1" stop-color="#FF8A00"></stop>
    </linearGradient>
  </defs>
</svg>
